<svg width="300" height="70" xmlns="http://www.w3.org/2000/svg"><path d="M25.8 55V25.3h3.1c1 0 1.8.3 2.3.9.5.6.8 1.5.8 2.5V55h2.2V28.7c0-1 .3-1.9.8-2.5.5-.6 1.3-1 2.3-1h3.2V55h2.3V23.2h-5.4a6 6 0 00-2.5.5c-.7.3-1.3.7-1.8 1.3-.4-.6-1-1-1.7-1.3-.8-.4-1.6-.5-2.5-.5h-5.5V55h2.4zm40.1.6c.9 0 1.7-.1 2.4-.4.6-.4 1.2-.8 1.7-1.4.4-.5.8-1.2 1-2 .2-.7.3-1.6.3-2.5V22.6H66c-.9 0-1.6.1-2.3.4a4.6 4.6 0 00-2.8 3c-.2.7-.3 1.4-.3 2.3v21.6c0 .8.1 1.6.3 2.3.3.7.6 1.3 1 1.8.5.5 1 1 1.7 1.2.7.3 1.5.4 2.4.4zm0-2c-1 0-1.7-.4-2.3-1-.5-.7-.8-1.5-.8-2.5V28c0-1 .3-1.8.8-2.4.6-.7 1.3-1 2.3-1H69v25c0 1-.3 2-.8 2.7-.5.8-1.3 1.1-2.3 1.1zm28.4 2c.9 0 1.7-.1 2.3-.4a5.7 5.7 0 002.7-3.3c.3-.8.4-1.7.4-2.6V22.6h-5.4c-.9 0-1.7.1-2.4.4a4.6 4.6 0 00-2.7 3c-.2.7-.3 1.4-.3 2.3v21.6c0 .8 0 1.6.3 2.3.2.7.6 1.3 1 1.8.5.5 1 1 1.7 1.2.7.3 1.5.4 2.4.4zm0-2c-1 0-1.8-.4-2.3-1-.5-.7-.8-1.5-.8-2.5V28c0-1 .3-1.8.8-2.4.5-.7 1.3-1 2.3-1h3v25c0 1-.2 2-.7 2.7-.6.8-1.3 1.1-2.3 1.1zM120 55V25.3h3c1 0 1.8.3 2.4 1 .5.6.7 1.5.7 2.4V55h2.4V28.9c0-.8-.1-1.6-.4-2.3a4.6 4.6 0 00-2.7-3 6 6 0 00-2.3-.4h-5.5V55h2.4zm30.8.6c.9 0 1.7-.1 2.4-.4a4.8 4.8 0 002.7-3c.2-.7.3-1.5.3-2.3v-3.7a7 7 0 00-.4-2.4 14.1 14.1 0 00-2.5-4 90.5 90.5 0 00-3-3.3c-.6-.5-1-1-1.3-1.6l-1-1.7c-.2-.6-.3-1.3-.3-2V28c0-1 .3-1.8.8-2.4.6-.7 1.3-1 2.3-1 1 0 1.8.3 2.3 1 .5.6.8 1.4.8 2.4v2.7h2.3v-2.5c0-.9 0-1.6-.3-2.3a4.6 4.6 0 00-2.7-3 6 6 0 00-2.4-.4c-.9 0-1.7.1-2.3.4a4.6 4.6 0 00-2.8 3c-.2.7-.3 1.4-.3 2.3v2.9c0 .9.1 1.7.4 2.4.2.8.6 1.5 1 2.2l1.5 1.9a54.7 54.7 0 003.1 3.3 8.4 8.4 0 012.1 3.3c.3.6.4 1.2.4 1.9v4c0 .9-.3 1.7-.8 2.3-.5.7-1.3 1-2.3 1-1 0-1.7-.3-2.3-1-.5-.6-.8-1.4-.8-2.4v-2.3h-2.3v2.1c0 .8.1 1.6.3 2.3a4.8 4.8 0 002.7 3 6 6 0 002.4.4zm24.8-.6V42.3a8.9 8.9 0 003.3-1.8l4.7 14.5h2.3l-5.3-16.4c1-1.3 1.8-3 2.5-5.2.7-2 1-4.7 1-7.7v-2.5h-5.4c-.6 0-1.2 0-1.7.2-.5.1-1 .3-1.4.6V6.1h-2.3V55h2.3zm0-15V28.6c0-1 .3-1.8.8-2.4.6-.7 1.3-1 2.3-1h3v.4c0 2.4-.1 4.5-.6 6.3-.4 1.7-1 3.1-1.6 4.2-.7 1.1-1.3 2-2 2.6-.7.6-1.3 1-1.9 1.1zm28.6 15V28.4c0-1 .3-1.8.8-2.4.5-.7 1.3-1 2.3-1h1.1l1-1.8a7.5 7.5 0 00-4.4.1 4.6 4.6 0 00-2.8 3c-.2.7-.3 1.5-.3 2.3V55h2.3zm22-41.1c.6 0 1-.2 1.2-.5.3-.3.4-.6.4-1 0-.5-.1-1-.4-1.2-.3-.2-.6-.4-1.1-.4-1 0-1.5.6-1.5 1.6 0 .4.1.7.4 1 .2.3.6.5 1 .5zm1.2 41.1V23.2H225V55h2.3zm21.2 13.8V25.3h4.6v-2.1h-4.6V11c0-1 .3-1.9 1-2.5.6-.6 1.4-1 2.4-1a7.3 7.3 0 012.2.4V6a4 4 0 00-1.2-.5 6.6 6.6 0 00-3.7.3c-.7.3-1.2.7-1.7 1.2-.4.5-.8 1.1-1 1.8-.2.7-.3 1.5-.3 2.3v12h-2.7v2h2.7v43.6h2.3zm27-13.2v-2.1h-1c-1 0-1.8-.3-2.3-1-.6-.6-.8-1.4-.8-2.4V25.3h4.3v-2.1h-4.3v-4H269v4h-2.6v2h2.6V50c0 .8.1 1.6.4 2.3a4.7 4.7 0 002.7 3 6 6 0 002.3.4h1z" fill="#fff"/></svg>
