<svg width="44" height="44" xmlns="http://www.w3.org/2000/svg"><path d="M44 8.2a17.5 17.5 0 01-4.5 4.7V14A26.2 26.2 0 0125 37.4a24.8 24.8 0 01-14.8 2A26.7 26.7 0 010 35.8a260.8 260.8 0 002.1.1A17.7 17.7 0 0013.4 32c-2 0-3.8-.7-5.3-1.9a8.9 8.9 0 01-3.2-4.4 6.5 6.5 0 001.7.2 8 8 0 002.4-.4c-2-.4-3.8-1.4-5.2-3a8.7 8.7 0 01-2-5.8v-.1a10.4 10.4 0 004 1.1 9 9 0 01-3.6-9.9c.2-.8.5-1.5.9-2.2a25.5 25.5 0 0018.6 9.5 23.3 23.3 0 01-.3-2 8.8 8.8 0 012.7-6.5A9.2 9.2 0 0130.5 4 9 9 0 0137 6.8a17.4 17.4 0 005.7-2.2 9 9 0 01-4 5A15.6 15.6 0 0044 8.2" fill="#fff"/></svg>
